<mxfile host="Electron" modified="2023-11-08T01:58:33.686Z" agent="Mozilla/5.0 (Windows NT 10.0; Win64; x64) AppleWebKit/537.36 (KHTML, like Gecko) draw.io/21.2.1 Chrome/112.0.5615.87 Electron/24.1.2 Safari/537.36" etag="lnPdkxOUlr4g6bmd4XTH" version="21.2.1" type="device">
  <diagram name="PÃ¡gina-1" id="ctV1LAYlhdu0PN3EPtzc">
    <mxGraphModel dx="2933" dy="655" grid="1" gridSize="10" guides="1" tooltips="1" connect="1" arrows="1" fold="1" page="1" pageScale="1" pageWidth="827" pageHeight="1169" math="0" shadow="0">
      <root>
        <mxCell id="0" />
        <mxCell id="1" parent="0" />
        <mxCell id="oHOC3U8sP_fkU0c64HHa-3" value="Mesa" style="swimlane;whiteSpace=wrap;html=1;" parent="1" vertex="1">
          <mxGeometry y="330" width="310" height="270" as="geometry" />
        </mxCell>
        <mxCell id="oHOC3U8sP_fkU0c64HHa-4" value="-Id: int" style="text;html=1;align=left;verticalAlign=middle;resizable=0;points=[];autosize=1;strokeColor=none;fillColor=none;" parent="oHOC3U8sP_fkU0c64HHa-3" vertex="1">
          <mxGeometry y="60" width="60" height="30" as="geometry" />
        </mxCell>
        <mxCell id="oHOC3U8sP_fkU0c64HHa-5" value="-oPedido: Pedido" style="text;html=1;align=left;verticalAlign=middle;resizable=0;points=[];autosize=1;strokeColor=none;fillColor=none;" parent="oHOC3U8sP_fkU0c64HHa-3" vertex="1">
          <mxGeometry y="90" width="120" height="30" as="geometry" />
        </mxCell>
        <mxCell id="oHOC3U8sP_fkU0c64HHa-7" value="+Mesa(String Nombre): Mesa" style="text;html=1;align=left;verticalAlign=middle;resizable=0;points=[];autosize=1;strokeColor=none;fillColor=none;" parent="oHOC3U8sP_fkU0c64HHa-3" vertex="1">
          <mxGeometry y="120" width="180" height="30" as="geometry" />
        </mxCell>
        <mxCell id="oHOC3U8sP_fkU0c64HHa-8" value="+VerPedido():Pedido" style="text;html=1;align=left;verticalAlign=middle;resizable=0;points=[];autosize=1;strokeColor=none;fillColor=none;" parent="oHOC3U8sP_fkU0c64HHa-3" vertex="1">
          <mxGeometry y="185" width="130" height="30" as="geometry" />
        </mxCell>
        <mxCell id="oHOC3U8sP_fkU0c64HHa-9" value="+EliminarPedido(Pedido p): void" style="text;html=1;align=left;verticalAlign=middle;resizable=0;points=[];autosize=1;strokeColor=none;fillColor=none;" parent="oHOC3U8sP_fkU0c64HHa-3" vertex="1">
          <mxGeometry y="215" width="200" height="30" as="geometry" />
        </mxCell>
        <mxCell id="oHOC3U8sP_fkU0c64HHa-6" value="" style="endArrow=none;html=1;rounded=0;" parent="oHOC3U8sP_fkU0c64HHa-3" edge="1">
          <mxGeometry width="50" height="50" relative="1" as="geometry">
            <mxPoint y="120" as="sourcePoint" />
            <mxPoint x="310" y="120" as="targetPoint" />
            <Array as="points">
              <mxPoint x="150" y="120" />
            </Array>
          </mxGeometry>
        </mxCell>
        <mxCell id="FvZ6tHAK_thW9XNJpyiw-1" value="-Nombre: string" style="text;html=1;align=left;verticalAlign=middle;resizable=0;points=[];autosize=1;strokeColor=none;fillColor=none;" parent="oHOC3U8sP_fkU0c64HHa-3" vertex="1">
          <mxGeometry y="30" width="110" height="30" as="geometry" />
        </mxCell>
        <mxCell id="4Y3CDv_m1vFDsEvj_Gw7-3" value="+CrearPedido(datetime FechaHoraApertura, &lt;br&gt;&lt;span style=&quot;white-space: pre;&quot;&gt; &lt;/span&gt;&lt;span style=&quot;white-space: pre;&quot;&gt; &lt;/span&gt;&lt;span style=&quot;white-space: pre;&quot;&gt; &lt;/span&gt;List&amp;lt;Item&amp;gt; Items): Pedido" style="text;html=1;align=left;verticalAlign=middle;resizable=0;points=[];autosize=1;strokeColor=none;fillColor=none;" parent="oHOC3U8sP_fkU0c64HHa-3" vertex="1">
          <mxGeometry y="145" width="260" height="40" as="geometry" />
        </mxCell>
        <mxCell id="oHOC3U8sP_fkU0c64HHa-11" value="Producto" style="swimlane;whiteSpace=wrap;html=1;verticalAlign=middle;" parent="1" vertex="1">
          <mxGeometry x="560" y="620" width="260" height="300" as="geometry" />
        </mxCell>
        <mxCell id="oHOC3U8sP_fkU0c64HHa-14" value="-Descripcion:string" style="text;html=1;align=left;verticalAlign=middle;resizable=0;points=[];autosize=1;strokeColor=none;fillColor=none;" parent="oHOC3U8sP_fkU0c64HHa-11" vertex="1">
          <mxGeometry y="90" width="120" height="30" as="geometry" />
        </mxCell>
        <mxCell id="oHOC3U8sP_fkU0c64HHa-15" value="-Costo:float" style="text;html=1;align=left;verticalAlign=middle;resizable=0;points=[];autosize=1;strokeColor=none;fillColor=none;" parent="oHOC3U8sP_fkU0c64HHa-11" vertex="1">
          <mxGeometry y="120" width="80" height="30" as="geometry" />
        </mxCell>
        <mxCell id="oHOC3U8sP_fkU0c64HHa-16" value="-Nombre:string" style="text;html=1;align=left;verticalAlign=middle;resizable=0;points=[];autosize=1;strokeColor=none;fillColor=none;" parent="oHOC3U8sP_fkU0c64HHa-11" vertex="1">
          <mxGeometry y="60" width="100" height="30" as="geometry" />
        </mxCell>
        <mxCell id="_PABGASE2RN9hqW6q4yv-1" value="-Id: int" style="text;html=1;align=left;verticalAlign=middle;resizable=0;points=[];autosize=1;strokeColor=none;fillColor=none;" parent="oHOC3U8sP_fkU0c64HHa-11" vertex="1">
          <mxGeometry y="30" width="60" height="30" as="geometry" />
        </mxCell>
        <mxCell id="LYaol5UPSi1GPMjdsya9-4" value="&lt;span style=&quot;&quot;&gt;-Precio:float&lt;/span&gt;" style="text;html=1;align=left;verticalAlign=middle;resizable=0;points=[];autosize=1;strokeColor=none;fillColor=none;" parent="oHOC3U8sP_fkU0c64HHa-11" vertex="1">
          <mxGeometry y="150" width="90" height="30" as="geometry" />
        </mxCell>
        <mxCell id="4Y3CDv_m1vFDsEvj_Gw7-6" value="+Producto(string nombre, string descripcion, &lt;br&gt;&lt;span style=&quot;white-space: pre;&quot;&gt; &lt;/span&gt;&lt;span style=&quot;white-space: pre;&quot;&gt; &lt;/span&gt;float costo,float precio, &lt;br&gt;&amp;nbsp; boolean elaboracion):Producto" style="text;html=1;align=left;verticalAlign=top;resizable=0;points=[];autosize=1;strokeColor=none;fillColor=none;" parent="oHOC3U8sP_fkU0c64HHa-11" vertex="1">
          <mxGeometry y="240" width="260" height="60" as="geometry" />
        </mxCell>
        <mxCell id="2_CiGt6fjQhqevDYTQbK-2" value="&lt;div style=&quot;&quot;&gt;&lt;span style=&quot;background-color: initial;&quot;&gt;-Elaboracion: boolean&lt;/span&gt;&lt;/div&gt;" style="text;html=1;align=left;verticalAlign=middle;resizable=0;points=[];autosize=1;strokeColor=none;fillColor=none;" parent="oHOC3U8sP_fkU0c64HHa-11" vertex="1">
          <mxGeometry y="180" width="140" height="30" as="geometry" />
        </mxCell>
        <mxCell id="oHOC3U8sP_fkU0c64HHa-17" value="Pedido" style="swimlane;whiteSpace=wrap;html=1;" parent="1" vertex="1">
          <mxGeometry x="350" y="287" width="240" height="313" as="geometry" />
        </mxCell>
        <mxCell id="_PABGASE2RN9hqW6q4yv-2" value="-Id: int" style="text;html=1;align=left;verticalAlign=middle;resizable=0;points=[];autosize=1;strokeColor=none;fillColor=none;" parent="oHOC3U8sP_fkU0c64HHa-17" vertex="1">
          <mxGeometry x="4" y="29" width="60" height="30" as="geometry" />
        </mxCell>
        <mxCell id="LYaol5UPSi1GPMjdsya9-3" value="-FechaHoraApertura:datetime" style="text;html=1;align=left;verticalAlign=middle;resizable=0;points=[];autosize=1;strokeColor=none;fillColor=none;" parent="oHOC3U8sP_fkU0c64HHa-17" vertex="1">
          <mxGeometry y="89" width="180" height="30" as="geometry" />
        </mxCell>
        <mxCell id="LYaol5UPSi1GPMjdsya9-1" value="-Items: List&amp;lt;Item&amp;gt;" style="text;html=1;align=left;verticalAlign=middle;resizable=0;points=[];autosize=1;strokeColor=none;fillColor=none;" parent="oHOC3U8sP_fkU0c64HHa-17" vertex="1">
          <mxGeometry y="119" width="120" height="30" as="geometry" />
        </mxCell>
        <mxCell id="LYaol5UPSi1GPMjdsya9-2" value="-FechaHoraCierre:datetime" style="text;html=1;align=left;verticalAlign=middle;resizable=0;points=[];autosize=1;strokeColor=none;fillColor=none;" parent="oHOC3U8sP_fkU0c64HHa-17" vertex="1">
          <mxGeometry y="59" width="170" height="30" as="geometry" />
        </mxCell>
        <mxCell id="LYaol5UPSi1GPMjdsya9-11" value="+SubTotal():float" style="text;strokeColor=none;fillColor=none;align=left;verticalAlign=top;spacingLeft=4;spacingRight=4;overflow=hidden;rotatable=0;points=[[0,0.5],[1,0.5]];portConstraint=eastwest;whiteSpace=wrap;html=1;" parent="oHOC3U8sP_fkU0c64HHa-17" vertex="1">
          <mxGeometry y="233" width="100" height="26" as="geometry" />
        </mxCell>
        <mxCell id="HqcyrPUHrJbBFAdNSH51-3" value="+ Pedido(datetime FechaHoraApertura, &lt;br&gt;&lt;span style=&quot;white-space: pre;&quot;&gt; &lt;/span&gt;&lt;span style=&quot;white-space: pre;&quot;&gt; &lt;/span&gt;List&amp;lt;Item&amp;gt; Items): Pedido" style="text;html=1;align=left;verticalAlign=top;resizable=0;points=[];autosize=1;strokeColor=none;fillColor=none;fontSize=12;" parent="oHOC3U8sP_fkU0c64HHa-17" vertex="1">
          <mxGeometry y="193" width="230" height="40" as="geometry" />
        </mxCell>
        <mxCell id="LYaol5UPSi1GPMjdsya9-13" value="+ AplicarDescuentoPedido(): float" style="text;strokeColor=none;fillColor=none;align=left;verticalAlign=top;spacingLeft=4;spacingRight=4;overflow=hidden;rotatable=0;points=[[0,0.5],[1,0.5]];portConstraint=eastwest;whiteSpace=wrap;html=1;" parent="oHOC3U8sP_fkU0c64HHa-17" vertex="1">
          <mxGeometry y="259" width="200" height="26" as="geometry" />
        </mxCell>
        <mxCell id="Pw-9JXFJJcMBxFDy0IEr-1" value="-Descuento: float" style="text;html=1;align=left;verticalAlign=middle;resizable=0;points=[];autosize=1;strokeColor=none;fillColor=none;" parent="oHOC3U8sP_fkU0c64HHa-17" vertex="1">
          <mxGeometry y="149" width="110" height="30" as="geometry" />
        </mxCell>
        <mxCell id="4Y3CDv_m1vFDsEvj_Gw7-4" value="+TotalPedido(): float" style="text;html=1;align=left;verticalAlign=top;resizable=0;points=[];autosize=1;strokeColor=none;fillColor=none;" parent="oHOC3U8sP_fkU0c64HHa-17" vertex="1">
          <mxGeometry y="283" width="130" height="30" as="geometry" />
        </mxCell>
        <mxCell id="oHOC3U8sP_fkU0c64HHa-22" value="Item" style="swimlane;whiteSpace=wrap;html=1;" parent="1" vertex="1">
          <mxGeometry x="240" y="740" width="240" height="250" as="geometry" />
        </mxCell>
        <mxCell id="oHOC3U8sP_fkU0c64HHa-23" value="-CantProd: int" style="text;html=1;align=left;verticalAlign=middle;resizable=0;points=[];autosize=1;strokeColor=none;fillColor=none;" parent="oHOC3U8sP_fkU0c64HHa-22" vertex="1">
          <mxGeometry y="40" width="100" height="30" as="geometry" />
        </mxCell>
        <mxCell id="CjFrfMzpDhLYkTtsZXYT-4" value="- oProducto: Producto" style="text;html=1;align=left;verticalAlign=middle;resizable=0;points=[];autosize=1;strokeColor=none;fillColor=none;" parent="oHOC3U8sP_fkU0c64HHa-22" vertex="1">
          <mxGeometry y="70" width="140" height="30" as="geometry" />
        </mxCell>
        <mxCell id="5GkfRn2mjFqrJ6OnAtMZ-6" value="-PrecioTotal: float" style="text;html=1;align=left;verticalAlign=middle;resizable=0;points=[];autosize=1;strokeColor=none;fillColor=none;" parent="oHOC3U8sP_fkU0c64HHa-22" vertex="1">
          <mxGeometry y="100" width="120" height="30" as="geometry" />
        </mxCell>
        <mxCell id="q3gMhQuaR9Cj_d_Av8YK-5" value="+CalcularTotal():float" style="text;html=1;align=left;verticalAlign=middle;resizable=0;points=[];autosize=1;strokeColor=none;fillColor=none;" parent="oHOC3U8sP_fkU0c64HHa-22" vertex="1">
          <mxGeometry y="180" width="130" height="30" as="geometry" />
        </mxCell>
        <mxCell id="q3gMhQuaR9Cj_d_Av8YK-4" value="" style="endArrow=none;html=1;rounded=0;" parent="oHOC3U8sP_fkU0c64HHa-22" edge="1">
          <mxGeometry width="50" height="50" relative="1" as="geometry">
            <mxPoint y="140" as="sourcePoint" />
            <mxPoint x="240" y="140" as="targetPoint" />
          </mxGeometry>
        </mxCell>
        <mxCell id="CYNIWQkQmnMh4SB6NplH-1" value="+Item(Producto oProducto, int cantidad, &lt;br&gt;&amp;nbsp; &amp;nbsp; &amp;nbsp; &amp;nbsp; &amp;nbsp; &amp;nbsp;float precioTotal): Item" style="text;html=1;align=left;verticalAlign=middle;resizable=0;points=[];autosize=1;strokeColor=none;fillColor=none;" parent="oHOC3U8sP_fkU0c64HHa-22" vertex="1">
          <mxGeometry y="140" width="240" height="40" as="geometry" />
        </mxCell>
        <mxCell id="oHOC3U8sP_fkU0c64HHa-26" value="" style="endArrow=diamondThin;endFill=1;endSize=24;html=1;rounded=0;entryX=1;entryY=0.5;entryDx=0;entryDy=0;exitX=0;exitY=1;exitDx=0;exitDy=0;" parent="1" source="oHOC3U8sP_fkU0c64HHa-11" target="oHOC3U8sP_fkU0c64HHa-22" edge="1">
          <mxGeometry width="160" relative="1" as="geometry">
            <mxPoint x="590" y="880" as="sourcePoint" />
            <mxPoint x="640" y="750" as="targetPoint" />
            <Array as="points" />
          </mxGeometry>
        </mxCell>
        <mxCell id="oHOC3U8sP_fkU0c64HHa-27" value="" style="endArrow=diamondThin;endFill=1;endSize=24;html=1;rounded=0;exitX=0.5;exitY=0;exitDx=0;exitDy=0;entryX=0.5;entryY=1;entryDx=0;entryDy=0;" parent="1" source="oHOC3U8sP_fkU0c64HHa-22" target="oHOC3U8sP_fkU0c64HHa-17" edge="1">
          <mxGeometry width="160" relative="1" as="geometry">
            <mxPoint x="340" y="610" as="sourcePoint" />
            <mxPoint x="470" y="630" as="targetPoint" />
          </mxGeometry>
        </mxCell>
        <mxCell id="CjFrfMzpDhLYkTtsZXYT-5" value="1....*" style="text;html=1;strokeColor=none;fillColor=none;align=center;verticalAlign=middle;whiteSpace=wrap;rounded=0;fontStyle=1;fontSize=14;" parent="1" vertex="1">
          <mxGeometry x="384" y="610" width="60" height="30" as="geometry" />
        </mxCell>
        <mxCell id="CjFrfMzpDhLYkTtsZXYT-6" value="&lt;b&gt;&lt;font style=&quot;font-size: 14px;&quot;&gt;1&lt;/font&gt;&lt;/b&gt;" style="text;html=1;strokeColor=none;fillColor=none;align=center;verticalAlign=middle;whiteSpace=wrap;rounded=0;" parent="1" vertex="1">
          <mxGeometry x="510" y="890" width="30" height="30" as="geometry" />
        </mxCell>
        <mxCell id="CjFrfMzpDhLYkTtsZXYT-7" value="&lt;font size=&quot;1&quot;&gt;&lt;b style=&quot;font-size: 15px;&quot;&gt;0....1&lt;/b&gt;&lt;/font&gt;" style="text;html=1;strokeColor=none;fillColor=none;align=center;verticalAlign=middle;whiteSpace=wrap;rounded=0;" parent="1" vertex="1">
          <mxGeometry x="160" y="290" width="60" height="30" as="geometry" />
        </mxCell>
        <mxCell id="oE-7fO8j5I8riuiFE3s_-2" value="" style="endArrow=diamondThin;endFill=0;endSize=24;html=1;rounded=0;exitX=0.5;exitY=0;exitDx=0;exitDy=0;entryX=0.5;entryY=0;entryDx=0;entryDy=0;" parent="1" source="oHOC3U8sP_fkU0c64HHa-17" target="oHOC3U8sP_fkU0c64HHa-3" edge="1">
          <mxGeometry width="160" relative="1" as="geometry">
            <mxPoint x="40" y="280" as="sourcePoint" />
            <mxPoint x="200" y="280" as="targetPoint" />
            <Array as="points">
              <mxPoint x="470" y="240" />
              <mxPoint x="160" y="240" />
            </Array>
          </mxGeometry>
        </mxCell>
        <mxCell id="HqcyrPUHrJbBFAdNSH51-4" style="edgeStyle=none;curved=1;rounded=0;orthogonalLoop=1;jettySize=auto;html=1;exitX=0.5;exitY=1;exitDx=0;exitDy=0;fontSize=12;startSize=8;endSize=8;" parent="1" source="CjFrfMzpDhLYkTtsZXYT-5" target="CjFrfMzpDhLYkTtsZXYT-5" edge="1">
          <mxGeometry relative="1" as="geometry" />
        </mxCell>
        <mxCell id="5GkfRn2mjFqrJ6OnAtMZ-1" value="Stock" style="swimlane;whiteSpace=wrap;html=1;" parent="1" vertex="1">
          <mxGeometry x="600" y="340" width="220" height="170" as="geometry" />
        </mxCell>
        <mxCell id="5GkfRn2mjFqrJ6OnAtMZ-2" value="-oProducto: Producto" style="text;html=1;align=left;verticalAlign=middle;resizable=0;points=[];autosize=1;strokeColor=none;fillColor=none;" parent="5GkfRn2mjFqrJ6OnAtMZ-1" vertex="1">
          <mxGeometry y="50" width="140" height="30" as="geometry" />
        </mxCell>
        <mxCell id="5GkfRn2mjFqrJ6OnAtMZ-7" value="-Id: int" style="text;html=1;align=left;verticalAlign=middle;resizable=0;points=[];autosize=1;strokeColor=none;fillColor=none;" parent="5GkfRn2mjFqrJ6OnAtMZ-1" vertex="1">
          <mxGeometry y="20" width="60" height="30" as="geometry" />
        </mxCell>
        <mxCell id="4Y3CDv_m1vFDsEvj_Gw7-1" value="-Cantidad: int" style="text;html=1;align=left;verticalAlign=middle;resizable=0;points=[];autosize=1;strokeColor=none;fillColor=none;" parent="5GkfRn2mjFqrJ6OnAtMZ-1" vertex="1">
          <mxGeometry y="80" width="90" height="30" as="geometry" />
        </mxCell>
        <mxCell id="q3gMhQuaR9Cj_d_Av8YK-8" value="+Stock(Producto oProducto, &lt;br&gt;&amp;nbsp; &amp;nbsp; &amp;nbsp; &amp;nbsp; &amp;nbsp; &amp;nbsp; &amp;nbsp;int cantidad): Stock" style="text;html=1;align=left;verticalAlign=middle;resizable=0;points=[];autosize=1;strokeColor=none;fillColor=none;" parent="5GkfRn2mjFqrJ6OnAtMZ-1" vertex="1">
          <mxGeometry y="130" width="170" height="40" as="geometry" />
        </mxCell>
        <mxCell id="5GkfRn2mjFqrJ6OnAtMZ-3" value="" style="endArrow=diamondThin;endFill=1;endSize=24;html=1;rounded=0;exitX=0.5;exitY=0;exitDx=0;exitDy=0;entryX=0.5;entryY=1;entryDx=0;entryDy=0;" parent="1" source="oHOC3U8sP_fkU0c64HHa-11" target="5GkfRn2mjFqrJ6OnAtMZ-1" edge="1">
          <mxGeometry width="160" relative="1" as="geometry">
            <mxPoint x="691" y="459" as="sourcePoint" />
            <mxPoint x="690" y="360" as="targetPoint" />
          </mxGeometry>
        </mxCell>
        <mxCell id="5GkfRn2mjFqrJ6OnAtMZ-4" value="1" style="text;html=1;strokeColor=none;fillColor=none;align=center;verticalAlign=middle;whiteSpace=wrap;rounded=0;fontStyle=1;fontSize=14;" parent="1" vertex="1">
          <mxGeometry x="640" y="520" width="60" height="30" as="geometry" />
        </mxCell>
        <mxCell id="q3gMhQuaR9Cj_d_Av8YK-6" value="Use" style="endArrow=open;endSize=12;dashed=1;html=1;rounded=0;exitX=0.5;exitY=1;exitDx=0;exitDy=0;" parent="1" source="oHOC3U8sP_fkU0c64HHa-3" target="oHOC3U8sP_fkU0c64HHa-22" edge="1">
          <mxGeometry width="160" relative="1" as="geometry">
            <mxPoint x="120" y="770" as="sourcePoint" />
            <mxPoint x="370" y="720" as="targetPoint" />
            <Array as="points">
              <mxPoint x="160" y="720" />
            </Array>
          </mxGeometry>
        </mxCell>
        <mxCell id="q3gMhQuaR9Cj_d_Av8YK-7" value="" style="endArrow=none;html=1;rounded=0;entryX=1;entryY=0.75;entryDx=0;entryDy=0;exitX=0;exitY=0.75;exitDx=0;exitDy=0;" parent="1" source="5GkfRn2mjFqrJ6OnAtMZ-1" target="5GkfRn2mjFqrJ6OnAtMZ-1" edge="1">
          <mxGeometry width="50" height="50" relative="1" as="geometry">
            <mxPoint x="780" y="350" as="sourcePoint" />
            <mxPoint x="1030" y="350" as="targetPoint" />
          </mxGeometry>
        </mxCell>
        <mxCell id="oHOC3U8sP_fkU0c64HHa-19" value="" style="endArrow=none;html=1;rounded=0;" parent="1" edge="1">
          <mxGeometry width="50" height="50" relative="1" as="geometry">
            <mxPoint x="350" y="480" as="sourcePoint" />
            <mxPoint x="590" y="480" as="targetPoint" />
          </mxGeometry>
        </mxCell>
        <mxCell id="4Y3CDv_m1vFDsEvj_Gw7-5" value="" style="endArrow=none;html=1;rounded=0;exitX=0;exitY=0.75;exitDx=0;exitDy=0;entryX=1;entryY=0.75;entryDx=0;entryDy=0;" parent="1" source="oHOC3U8sP_fkU0c64HHa-11" target="oHOC3U8sP_fkU0c64HHa-11" edge="1">
          <mxGeometry width="50" height="50" relative="1" as="geometry">
            <mxPoint x="580" y="820" as="sourcePoint" />
            <mxPoint x="810" y="802" as="targetPoint" />
          </mxGeometry>
        </mxCell>
        <mxCell id="CYNIWQkQmnMh4SB6NplH-3" value="ControladoraProducto" style="swimlane;fontStyle=0;childLayout=stackLayout;horizontal=1;startSize=26;fillColor=none;horizontalStack=0;resizeParent=1;resizeParentMax=0;resizeLast=0;collapsible=1;marginBottom=0;whiteSpace=wrap;html=1;" parent="1" vertex="1">
          <mxGeometry x="980" y="588" width="380" height="186" as="geometry">
            <mxRectangle x="1040" y="555" width="160" height="30" as="alternateBounds" />
          </mxGeometry>
        </mxCell>
        <mxCell id="CYNIWQkQmnMh4SB6NplH-7" value="+CrearProducto(String nombre, String descripcion, float precio, &lt;br&gt;&amp;nbsp; &amp;nbsp; &amp;nbsp; &amp;nbsp; &amp;nbsp; &amp;nbsp; &amp;nbsp; &amp;nbsp; &amp;nbsp; &amp;nbsp; &amp;nbsp; &amp;nbsp; &amp;nbsp; &amp;nbsp;float costo, boolean elaboracion): Producto" style="text;html=1;align=left;verticalAlign=middle;resizable=0;points=[];autosize=1;strokeColor=none;fillColor=none;" parent="CYNIWQkQmnMh4SB6NplH-3" vertex="1">
          <mxGeometry y="26" width="380" height="40" as="geometry" />
        </mxCell>
        <mxCell id="CYNIWQkQmnMh4SB6NplH-12" value="+VerProducto(String nombre, String descripcion, float precio, &lt;br&gt;&amp;nbsp; &amp;nbsp; &amp;nbsp; &amp;nbsp; &amp;nbsp; &amp;nbsp; &amp;nbsp; &amp;nbsp; &amp;nbsp; &amp;nbsp; &amp;nbsp; &amp;nbsp;float costo, boolean elaboracion): Producto" style="text;html=1;align=left;verticalAlign=middle;resizable=0;points=[];autosize=1;strokeColor=none;fillColor=none;" parent="CYNIWQkQmnMh4SB6NplH-3" vertex="1">
          <mxGeometry y="66" width="380" height="40" as="geometry" />
        </mxCell>
        <mxCell id="CYNIWQkQmnMh4SB6NplH-13" value="+ActualizarProducto(String nombre, String descripcion, float precio, &lt;br&gt;&amp;nbsp; &amp;nbsp; &amp;nbsp; &amp;nbsp; &amp;nbsp; &amp;nbsp; &amp;nbsp; &amp;nbsp; &amp;nbsp; &amp;nbsp; &amp;nbsp; &amp;nbsp; &amp;nbsp; &amp;nbsp; &amp;nbsp; &amp;nbsp; &amp;nbsp; float costo, boolean elaboracion): Producto" style="text;html=1;align=left;verticalAlign=middle;resizable=0;points=[];autosize=1;strokeColor=none;fillColor=none;" parent="CYNIWQkQmnMh4SB6NplH-3" vertex="1">
          <mxGeometry y="106" width="380" height="40" as="geometry" />
        </mxCell>
        <mxCell id="CYNIWQkQmnMh4SB6NplH-8" value="+EliminarProducto(String nombre, String descripcion, float precio, &lt;br&gt;&amp;nbsp; &amp;nbsp; &amp;nbsp; &amp;nbsp; &amp;nbsp; &amp;nbsp; &amp;nbsp; &amp;nbsp; &amp;nbsp; &amp;nbsp; &amp;nbsp; &amp;nbsp; &amp;nbsp; &amp;nbsp; &amp;nbsp; &amp;nbsp;float costo, boolean elaboracion): Producto" style="text;html=1;align=left;verticalAlign=middle;resizable=0;points=[];autosize=1;strokeColor=none;fillColor=none;" parent="CYNIWQkQmnMh4SB6NplH-3" vertex="1">
          <mxGeometry y="146" width="380" height="40" as="geometry" />
        </mxCell>
        <mxCell id="CYNIWQkQmnMh4SB6NplH-14" value="Use" style="endArrow=open;endSize=12;dashed=1;html=1;rounded=0;exitX=1;exitY=0.5;exitDx=0;exitDy=0;" parent="1" source="oHOC3U8sP_fkU0c64HHa-11" target="CYNIWQkQmnMh4SB6NplH-15" edge="1">
          <mxGeometry width="160" relative="1" as="geometry">
            <mxPoint x="900" y="840" as="sourcePoint" />
            <mxPoint x="920" y="840" as="targetPoint" />
          </mxGeometry>
        </mxCell>
        <mxCell id="CYNIWQkQmnMh4SB6NplH-15" value="DAOProducto" style="swimlane;fontStyle=0;childLayout=stackLayout;horizontal=1;startSize=26;fillColor=none;horizontalStack=0;resizeParent=1;resizeParentMax=0;resizeLast=0;collapsible=1;marginBottom=0;whiteSpace=wrap;html=1;" parent="1" vertex="1">
          <mxGeometry x="980" y="890" width="380" height="176" as="geometry" />
        </mxCell>
        <mxCell id="CYNIWQkQmnMh4SB6NplH-23" value="+ListadoDeProductos(): List&amp;lt;Producto&amp;gt;" style="text;html=1;align=left;verticalAlign=middle;resizable=0;points=[];autosize=1;strokeColor=none;fillColor=none;" parent="CYNIWQkQmnMh4SB6NplH-15" vertex="1">
          <mxGeometry y="26" width="380" height="30" as="geometry" />
        </mxCell>
        <mxCell id="CYNIWQkQmnMh4SB6NplH-22" value="+Guardar(Producto producto): void" style="text;html=1;align=left;verticalAlign=middle;resizable=0;points=[];autosize=1;strokeColor=none;fillColor=none;" parent="CYNIWQkQmnMh4SB6NplH-15" vertex="1">
          <mxGeometry y="56" width="380" height="30" as="geometry" />
        </mxCell>
        <mxCell id="CYNIWQkQmnMh4SB6NplH-21" value="+Ver(Producto producto): void" style="text;html=1;align=left;verticalAlign=middle;resizable=0;points=[];autosize=1;strokeColor=none;fillColor=none;" parent="CYNIWQkQmnMh4SB6NplH-15" vertex="1">
          <mxGeometry y="86" width="380" height="30" as="geometry" />
        </mxCell>
        <mxCell id="CYNIWQkQmnMh4SB6NplH-20" value="+Update(Producto producto): void" style="text;html=1;align=left;verticalAlign=middle;resizable=0;points=[];autosize=1;strokeColor=none;fillColor=none;" parent="CYNIWQkQmnMh4SB6NplH-15" vertex="1">
          <mxGeometry y="116" width="380" height="30" as="geometry" />
        </mxCell>
        <mxCell id="CYNIWQkQmnMh4SB6NplH-19" value="+EliminarProdcutoPorNombre(String nombre): boolean" style="text;html=1;align=left;verticalAlign=middle;resizable=0;points=[];autosize=1;strokeColor=none;fillColor=none;" parent="CYNIWQkQmnMh4SB6NplH-15" vertex="1">
          <mxGeometry y="146" width="380" height="30" as="geometry" />
        </mxCell>
        <mxCell id="CYNIWQkQmnMh4SB6NplH-24" value="" style="endArrow=diamondThin;endFill=0;endSize=24;html=1;rounded=0;entryX=0.471;entryY=0.975;entryDx=0;entryDy=0;entryPerimeter=0;exitX=0.476;exitY=0.011;exitDx=0;exitDy=0;exitPerimeter=0;" parent="1" source="CYNIWQkQmnMh4SB6NplH-15" target="CYNIWQkQmnMh4SB6NplH-8" edge="1">
          <mxGeometry width="160" relative="1" as="geometry">
            <mxPoint x="1020" y="820" as="sourcePoint" />
            <mxPoint x="1180" y="820" as="targetPoint" />
          </mxGeometry>
        </mxCell>
        <mxCell id="CYNIWQkQmnMh4SB6NplH-25" value="Use" style="endArrow=open;endSize=12;dashed=1;html=1;rounded=0;exitX=1.008;exitY=-0.075;exitDx=0;exitDy=0;exitPerimeter=0;" parent="1" source="CYNIWQkQmnMh4SB6NplH-8" target="CYNIWQkQmnMh4SB6NplH-26" edge="1">
          <mxGeometry width="160" relative="1" as="geometry">
            <mxPoint x="1440" y="750" as="sourcePoint" />
            <mxPoint x="1560" y="820" as="targetPoint" />
            <Array as="points" />
          </mxGeometry>
        </mxCell>
        <mxCell id="CYNIWQkQmnMh4SB6NplH-26" value="VistaProducto" style="swimlane;fontStyle=0;childLayout=stackLayout;horizontal=1;startSize=26;fillColor=none;horizontalStack=0;resizeParent=1;resizeParentMax=0;resizeLast=0;collapsible=1;marginBottom=0;whiteSpace=wrap;html=1;" parent="1" vertex="1">
          <mxGeometry x="1530" y="734" width="260" height="244" as="geometry" />
        </mxCell>
        <mxCell id="CYNIWQkQmnMh4SB6NplH-36" value="-btnGuardarProducto: JButton" style="text;html=1;align=left;verticalAlign=middle;resizable=0;points=[];autosize=1;strokeColor=none;fillColor=none;" parent="CYNIWQkQmnMh4SB6NplH-26" vertex="1">
          <mxGeometry y="26" width="260" height="30" as="geometry" />
        </mxCell>
        <mxCell id="CYNIWQkQmnMh4SB6NplH-34" value="-btnEliminarProducto: JButton" style="text;html=1;align=left;verticalAlign=middle;resizable=0;points=[];autosize=1;strokeColor=none;fillColor=none;" parent="CYNIWQkQmnMh4SB6NplH-26" vertex="1">
          <mxGeometry y="56" width="260" height="30" as="geometry" />
        </mxCell>
        <mxCell id="CYNIWQkQmnMh4SB6NplH-33" value="-btnActualizarTabla: JButton" style="text;html=1;align=left;verticalAlign=middle;resizable=0;points=[];autosize=1;strokeColor=none;fillColor=none;" parent="CYNIWQkQmnMh4SB6NplH-26" vertex="1">
          <mxGeometry y="86" width="260" height="30" as="geometry" />
        </mxCell>
        <mxCell id="CYNIWQkQmnMh4SB6NplH-37" value="-btnLimpiarTexto: JButton" style="text;html=1;align=left;verticalAlign=middle;resizable=0;points=[];autosize=1;strokeColor=none;fillColor=none;" parent="CYNIWQkQmnMh4SB6NplH-26" vertex="1">
          <mxGeometry y="116" width="260" height="30" as="geometry" />
        </mxCell>
        <mxCell id="CYNIWQkQmnMh4SB6NplH-38" value="-SPTableProductos: JScrollPane" style="text;html=1;align=left;verticalAlign=middle;resizable=0;points=[];autosize=1;strokeColor=none;fillColor=none;" parent="CYNIWQkQmnMh4SB6NplH-26" vertex="1">
          <mxGeometry y="146" width="260" height="30" as="geometry" />
        </mxCell>
        <mxCell id="CYNIWQkQmnMh4SB6NplH-39" value="+tableProductos: JTable" style="text;html=1;align=left;verticalAlign=middle;resizable=0;points=[];autosize=1;strokeColor=none;fillColor=none;" parent="CYNIWQkQmnMh4SB6NplH-26" vertex="1">
          <mxGeometry y="176" width="260" height="30" as="geometry" />
        </mxCell>
        <mxCell id="CYNIWQkQmnMh4SB6NplH-41" value="" style="line;strokeWidth=1;fillColor=none;align=left;verticalAlign=middle;spacingTop=-1;spacingLeft=3;spacingRight=3;rotatable=0;labelPosition=right;points=[];portConstraint=eastwest;strokeColor=inherit;" parent="CYNIWQkQmnMh4SB6NplH-26" vertex="1">
          <mxGeometry y="206" width="260" height="8" as="geometry" />
        </mxCell>
        <mxCell id="CYNIWQkQmnMh4SB6NplH-40" value="+cargarProdcutos(): void" style="text;html=1;align=left;verticalAlign=middle;resizable=0;points=[];autosize=1;strokeColor=none;fillColor=none;" parent="CYNIWQkQmnMh4SB6NplH-26" vertex="1">
          <mxGeometry y="214" width="260" height="30" as="geometry" />
        </mxCell>
        <mxCell id="CYNIWQkQmnMh4SB6NplH-30" value="Use" style="endArrow=open;endSize=12;dashed=1;html=1;rounded=0;exitX=1;exitY=0;exitDx=0;exitDy=0;" parent="1" source="CYNIWQkQmnMh4SB6NplH-15" target="CYNIWQkQmnMh4SB6NplH-26" edge="1">
          <mxGeometry width="160" relative="1" as="geometry">
            <mxPoint x="1360" y="821" as="sourcePoint" />
            <mxPoint x="1580" y="845" as="targetPoint" />
            <Array as="points" />
          </mxGeometry>
        </mxCell>
        <mxCell id="CYNIWQkQmnMh4SB6NplH-32" value="&lt;div&gt;&lt;br&gt;&lt;/div&gt;&lt;div&gt;&lt;br&gt;&lt;/div&gt;&lt;div&gt;&lt;br&gt;&lt;/div&gt;&lt;div&gt;&lt;br&gt;&lt;/div&gt;&lt;div&gt;&lt;br&gt;&lt;/div&gt;&lt;div style=&quot;text-align: left;&quot;&gt;&lt;br&gt;&lt;/div&gt;" style="text;html=1;align=center;verticalAlign=middle;resizable=0;points=[];autosize=1;strokeColor=none;fillColor=none;" parent="1" vertex="1">
          <mxGeometry x="1740" y="966" width="20" height="100" as="geometry" />
        </mxCell>
        <mxCell id="IYfqnWC_g6lOOPnZCSYN-1" value="ControladoraMesa" style="swimlane;fontStyle=0;childLayout=stackLayout;horizontal=1;startSize=26;fillColor=none;horizontalStack=0;resizeParent=1;resizeParentMax=0;resizeLast=0;collapsible=1;marginBottom=0;whiteSpace=wrap;html=1;" vertex="1" parent="1">
          <mxGeometry x="-440" y="260" width="280" height="304" as="geometry" />
        </mxCell>
        <mxCell id="IYfqnWC_g6lOOPnZCSYN-6" value="-Mesas: List&amp;lt;Mesa&amp;gt;" style="text;html=1;align=left;verticalAlign=middle;resizable=0;points=[];autosize=1;strokeColor=none;fillColor=none;" vertex="1" parent="IYfqnWC_g6lOOPnZCSYN-1">
          <mxGeometry y="26" width="280" height="30" as="geometry" />
        </mxCell>
        <mxCell id="IYfqnWC_g6lOOPnZCSYN-7" value="-oDaomesa: DAOMesa" style="text;html=1;align=left;verticalAlign=middle;resizable=0;points=[];autosize=1;strokeColor=none;fillColor=none;" vertex="1" parent="IYfqnWC_g6lOOPnZCSYN-1">
          <mxGeometry y="56" width="280" height="30" as="geometry" />
        </mxCell>
        <mxCell id="IYfqnWC_g6lOOPnZCSYN-8" value="" style="line;strokeWidth=1;fillColor=none;align=left;verticalAlign=middle;spacingTop=-1;spacingLeft=3;spacingRight=3;rotatable=0;labelPosition=right;points=[];portConstraint=eastwest;strokeColor=inherit;" vertex="1" parent="IYfqnWC_g6lOOPnZCSYN-1">
          <mxGeometry y="86" width="280" height="8" as="geometry" />
        </mxCell>
        <mxCell id="IYfqnWC_g6lOOPnZCSYN-9" value="+CrearMesa(String Nombre): Mesa" style="text;html=1;align=left;verticalAlign=middle;resizable=0;points=[];autosize=1;strokeColor=none;fillColor=none;" vertex="1" parent="IYfqnWC_g6lOOPnZCSYN-1">
          <mxGeometry y="94" width="280" height="30" as="geometry" />
        </mxCell>
        <mxCell id="IYfqnWC_g6lOOPnZCSYN-13" value="+BuscarMesaPorNombre(String Nombre): Mesa" style="text;html=1;align=left;verticalAlign=middle;resizable=0;points=[];autosize=1;strokeColor=none;fillColor=none;" vertex="1" parent="IYfqnWC_g6lOOPnZCSYN-1">
          <mxGeometry y="124" width="280" height="30" as="geometry" />
        </mxCell>
        <mxCell id="IYfqnWC_g6lOOPnZCSYN-14" value="+EliminarMesa(String Nombre): void" style="text;html=1;align=left;verticalAlign=middle;resizable=0;points=[];autosize=1;strokeColor=none;fillColor=none;" vertex="1" parent="IYfqnWC_g6lOOPnZCSYN-1">
          <mxGeometry y="154" width="280" height="30" as="geometry" />
        </mxCell>
        <mxCell id="IYfqnWC_g6lOOPnZCSYN-15" value="+MostrarTodasLasMesas(): void" style="text;html=1;align=left;verticalAlign=middle;resizable=0;points=[];autosize=1;strokeColor=none;fillColor=none;" vertex="1" parent="IYfqnWC_g6lOOPnZCSYN-1">
          <mxGeometry y="184" width="280" height="30" as="geometry" />
        </mxCell>
        <mxCell id="IYfqnWC_g6lOOPnZCSYN-17" value="+AgregarItemEnPedido(Pedido p, Item i): void" style="text;html=1;align=left;verticalAlign=middle;resizable=0;points=[];autosize=1;strokeColor=none;fillColor=none;" vertex="1" parent="IYfqnWC_g6lOOPnZCSYN-1">
          <mxGeometry y="214" width="280" height="30" as="geometry" />
        </mxCell>
        <mxCell id="IYfqnWC_g6lOOPnZCSYN-18" value="+EliminarItemEnPedido(Pedido p, Item i): void" style="text;html=1;align=left;verticalAlign=middle;resizable=0;points=[];autosize=1;strokeColor=none;fillColor=none;" vertex="1" parent="IYfqnWC_g6lOOPnZCSYN-1">
          <mxGeometry y="244" width="280" height="30" as="geometry" />
        </mxCell>
        <mxCell id="IYfqnWC_g6lOOPnZCSYN-19" value="+MostrarPedidoEnMesa(Mesa mesa): void" style="text;html=1;align=left;verticalAlign=middle;resizable=0;points=[];autosize=1;strokeColor=none;fillColor=none;" vertex="1" parent="IYfqnWC_g6lOOPnZCSYN-1">
          <mxGeometry y="274" width="280" height="30" as="geometry" />
        </mxCell>
        <mxCell id="IYfqnWC_g6lOOPnZCSYN-10" value="" style="endArrow=diamondThin;endFill=1;endSize=24;html=1;rounded=0;entryX=0.005;entryY=0.55;entryDx=0;entryDy=0;exitX=1;exitY=0;exitDx=0;exitDy=0;entryPerimeter=0;" edge="1" parent="1" source="oHOC3U8sP_fkU0c64HHa-11" target="CYNIWQkQmnMh4SB6NplH-7">
          <mxGeometry width="160" relative="1" as="geometry">
            <mxPoint x="870" y="540" as="sourcePoint" />
            <mxPoint x="1030" y="540" as="targetPoint" />
          </mxGeometry>
        </mxCell>
        <mxCell id="IYfqnWC_g6lOOPnZCSYN-12" value="" style="endArrow=diamondThin;endFill=1;endSize=24;html=1;rounded=0;entryX=1;entryY=0.25;entryDx=0;entryDy=0;exitX=0;exitY=0;exitDx=0;exitDy=0;" edge="1" parent="1" source="oHOC3U8sP_fkU0c64HHa-3" target="IYfqnWC_g6lOOPnZCSYN-1">
          <mxGeometry width="160" relative="1" as="geometry">
            <mxPoint x="-260" y="490" as="sourcePoint" />
            <mxPoint x="-100" y="490" as="targetPoint" />
          </mxGeometry>
        </mxCell>
        <mxCell id="IYfqnWC_g6lOOPnZCSYN-20" value="Use" style="endArrow=open;endSize=12;dashed=1;html=1;rounded=0;exitX=1;exitY=0;exitDx=0;exitDy=0;entryX=0;entryY=1;entryDx=0;entryDy=0;" edge="1" parent="1" source="IYfqnWC_g6lOOPnZCSYN-22" target="oHOC3U8sP_fkU0c64HHa-3">
          <mxGeometry width="160" relative="1" as="geometry">
            <mxPoint x="-100" y="690" as="sourcePoint" />
            <mxPoint x="60" y="690" as="targetPoint" />
          </mxGeometry>
        </mxCell>
        <mxCell id="IYfqnWC_g6lOOPnZCSYN-22" value="DAOMesa" style="swimlane;fontStyle=0;childLayout=stackLayout;horizontal=1;startSize=26;fillColor=none;horizontalStack=0;resizeParent=1;resizeParentMax=0;resizeLast=0;collapsible=1;marginBottom=0;whiteSpace=wrap;html=1;" vertex="1" parent="1">
          <mxGeometry x="-450" y="670" width="280" height="116" as="geometry" />
        </mxCell>
        <mxCell id="IYfqnWC_g6lOOPnZCSYN-28" value="+CrearMesa(Mesa mesa): void" style="text;html=1;align=left;verticalAlign=middle;resizable=0;points=[];autosize=1;strokeColor=none;fillColor=none;" vertex="1" parent="IYfqnWC_g6lOOPnZCSYN-22">
          <mxGeometry y="26" width="280" height="30" as="geometry" />
        </mxCell>
        <mxCell id="IYfqnWC_g6lOOPnZCSYN-29" value="+EliminarMesa(String nombre): void" style="text;html=1;align=left;verticalAlign=middle;resizable=0;points=[];autosize=1;strokeColor=none;fillColor=none;" vertex="1" parent="IYfqnWC_g6lOOPnZCSYN-22">
          <mxGeometry y="56" width="280" height="30" as="geometry" />
        </mxCell>
        <mxCell id="IYfqnWC_g6lOOPnZCSYN-30" value="+ListarMesas(): List&amp;lt;Mesa&amp;gt; Mesas" style="text;html=1;align=left;verticalAlign=middle;resizable=0;points=[];autosize=1;strokeColor=none;fillColor=none;" vertex="1" parent="IYfqnWC_g6lOOPnZCSYN-22">
          <mxGeometry y="86" width="280" height="30" as="geometry" />
        </mxCell>
        <mxCell id="IYfqnWC_g6lOOPnZCSYN-27" value="" style="endArrow=diamondThin;endFill=0;endSize=24;html=1;rounded=0;exitX=0.5;exitY=0;exitDx=0;exitDy=0;" edge="1" parent="1" source="IYfqnWC_g6lOOPnZCSYN-22" target="IYfqnWC_g6lOOPnZCSYN-1">
          <mxGeometry width="160" relative="1" as="geometry">
            <mxPoint x="-580" y="610" as="sourcePoint" />
            <mxPoint x="-420" y="610" as="targetPoint" />
          </mxGeometry>
        </mxCell>
        <mxCell id="IYfqnWC_g6lOOPnZCSYN-31" value="" style="endArrow=diamondThin;endFill=1;endSize=24;html=1;rounded=0;entryX=1;entryY=0;entryDx=0;entryDy=0;exitX=0;exitY=0;exitDx=0;exitDy=0;" edge="1" parent="1" source="IYfqnWC_g6lOOPnZCSYN-1" target="IYfqnWC_g6lOOPnZCSYN-32">
          <mxGeometry width="160" relative="1" as="geometry">
            <mxPoint x="-500" y="300" as="sourcePoint" />
            <mxPoint x="-660" y="306" as="targetPoint" />
          </mxGeometry>
        </mxCell>
        <mxCell id="IYfqnWC_g6lOOPnZCSYN-32" value="VistaMesa" style="swimlane;fontStyle=0;childLayout=stackLayout;horizontal=1;startSize=26;fillColor=none;horizontalStack=0;resizeParent=1;resizeParentMax=0;resizeLast=0;collapsible=1;marginBottom=0;whiteSpace=wrap;html=1;" vertex="1" parent="1">
          <mxGeometry x="-930" y="260" width="290" height="334" as="geometry" />
        </mxCell>
        <mxCell id="IYfqnWC_g6lOOPnZCSYN-49" value="-oControladoraMesa: ControladoraMesa" style="text;html=1;align=left;verticalAlign=middle;resizable=0;points=[];autosize=1;strokeColor=none;fillColor=none;" vertex="1" parent="IYfqnWC_g6lOOPnZCSYN-32">
          <mxGeometry y="26" width="290" height="30" as="geometry" />
        </mxCell>
        <mxCell id="IYfqnWC_g6lOOPnZCSYN-38" value="-ListMesa: JList&amp;lt;String&amp;gt;" style="text;html=1;align=left;verticalAlign=middle;resizable=0;points=[];autosize=1;strokeColor=none;fillColor=none;" vertex="1" parent="IYfqnWC_g6lOOPnZCSYN-32">
          <mxGeometry y="56" width="290" height="30" as="geometry" />
        </mxCell>
        <mxCell id="IYfqnWC_g6lOOPnZCSYN-41" value="-ListaMesas: JScrollPane" style="text;html=1;align=left;verticalAlign=middle;resizable=0;points=[];autosize=1;strokeColor=none;fillColor=none;" vertex="1" parent="IYfqnWC_g6lOOPnZCSYN-32">
          <mxGeometry y="86" width="290" height="30" as="geometry" />
        </mxCell>
        <mxCell id="IYfqnWC_g6lOOPnZCSYN-40" value="-btnAgregarMesa: JButton" style="text;html=1;align=left;verticalAlign=middle;resizable=0;points=[];autosize=1;strokeColor=none;fillColor=none;" vertex="1" parent="IYfqnWC_g6lOOPnZCSYN-32">
          <mxGeometry y="116" width="290" height="30" as="geometry" />
        </mxCell>
        <mxCell id="IYfqnWC_g6lOOPnZCSYN-42" value="-btnCrearMesa: JButton" style="text;html=1;align=left;verticalAlign=middle;resizable=0;points=[];autosize=1;strokeColor=none;fillColor=none;" vertex="1" parent="IYfqnWC_g6lOOPnZCSYN-32">
          <mxGeometry y="146" width="290" height="30" as="geometry" />
        </mxCell>
        <mxCell id="IYfqnWC_g6lOOPnZCSYN-43" value="-btnEliminarMesa: JButton" style="text;html=1;align=left;verticalAlign=middle;resizable=0;points=[];autosize=1;strokeColor=none;fillColor=none;" vertex="1" parent="IYfqnWC_g6lOOPnZCSYN-32">
          <mxGeometry y="176" width="290" height="30" as="geometry" />
        </mxCell>
        <mxCell id="IYfqnWC_g6lOOPnZCSYN-44" value="-btnLimpiarNombre: JButton" style="text;html=1;align=left;verticalAlign=middle;resizable=0;points=[];autosize=1;strokeColor=none;fillColor=none;" vertex="1" parent="IYfqnWC_g6lOOPnZCSYN-32">
          <mxGeometry y="206" width="290" height="30" as="geometry" />
        </mxCell>
        <mxCell id="IYfqnWC_g6lOOPnZCSYN-45" value="-btnVerMesa: JButton" style="text;html=1;align=left;verticalAlign=middle;resizable=0;points=[];autosize=1;strokeColor=none;fillColor=none;" vertex="1" parent="IYfqnWC_g6lOOPnZCSYN-32">
          <mxGeometry y="236" width="290" height="30" as="geometry" />
        </mxCell>
        <mxCell id="IYfqnWC_g6lOOPnZCSYN-46" value="-jpMesa: JPanel" style="text;html=1;align=left;verticalAlign=middle;resizable=0;points=[];autosize=1;strokeColor=none;fillColor=none;" vertex="1" parent="IYfqnWC_g6lOOPnZCSYN-32">
          <mxGeometry y="266" width="290" height="30" as="geometry" />
        </mxCell>
        <mxCell id="IYfqnWC_g6lOOPnZCSYN-47" value="" style="line;strokeWidth=1;fillColor=none;align=left;verticalAlign=middle;spacingTop=-1;spacingLeft=3;spacingRight=3;rotatable=0;labelPosition=right;points=[];portConstraint=eastwest;strokeColor=inherit;" vertex="1" parent="IYfqnWC_g6lOOPnZCSYN-32">
          <mxGeometry y="296" width="290" height="8" as="geometry" />
        </mxCell>
        <mxCell id="IYfqnWC_g6lOOPnZCSYN-48" value="+CargarListaMesa(): void" style="text;html=1;align=left;verticalAlign=middle;resizable=0;points=[];autosize=1;strokeColor=none;fillColor=none;" vertex="1" parent="IYfqnWC_g6lOOPnZCSYN-32">
          <mxGeometry y="304" width="290" height="30" as="geometry" />
        </mxCell>
        <mxCell id="IYfqnWC_g6lOOPnZCSYN-37" value="&lt;div&gt;&amp;nbsp;&lt;/div&gt;&lt;div&gt;&amp;nbsp;&amp;nbsp;&lt;/div&gt;&lt;div&gt;&amp;nbsp; &amp;nbsp;&lt;/div&gt;&lt;div&gt;&amp;nbsp;&amp;nbsp;&lt;/div&gt;&lt;div&gt;&amp;nbsp; &amp;nbsp;&lt;/div&gt;&lt;div&gt;&amp;nbsp; &amp;nbsp;&lt;/div&gt;&lt;div&gt;&amp;nbsp;&amp;nbsp;&lt;/div&gt;&lt;div&gt;&amp;nbsp;&amp;nbsp;&lt;/div&gt;" style="text;html=1;align=center;verticalAlign=middle;resizable=0;points=[];autosize=1;strokeColor=none;fillColor=none;" vertex="1" parent="1">
          <mxGeometry x="-755" y="358" width="30" height="130" as="geometry" />
        </mxCell>
      </root>
    </mxGraphModel>
  </diagram>
</mxfile>
